<svg width="300" height="397" fill="none" xmlns="http://www.w3.org/2000/svg"><path fill-rule="evenodd" clip-rule="evenodd" d="M.868 14.873c143.911-19.112 226.858-20.541 380.265 0l.867.117v68.26h-9.073v31.445h-16.192a71.675 71.675 0 0 0-.957 7.029c-.376 4.457-.355 9.756 1.075 13.584 1.523 4.08 5.375 8.439 8.964 11.842a80.414 80.414 0 0 0 6.162 5.264c.174.133.31.236.402.304l.04.03.063.047.026.019.006.004.001.001-.004.005.004-.005.41.299V179.081H382v161.224h-9.073v36.749l-.795.166c-125.899 26.354-206.367 26.395-360.627.007l-.83-.142v-36.78H0V179.081h10.674V153.043l.508-.287c.87-.492 1.761-.974 2.66-1.46 2.8-1.514 5.67-3.066 8.162-5.072 3.239-2.607 5.712-5.897 6.29-10.686l.001-.011.002-.011c.928-6.508 1.063-10.959.085-20.821H10.674V83.25H0V14.989l.868-.116Zm11.806 325.544c146.733 15.591 225.597 15.607 358.253.013v34.999c-124.925 26.079-205.057 26.125-358.253-.031v-34.981Zm17.718-225.722h324.309a73.604 73.604 0 0 0-.916 6.861c-.248 2.939-.343 6.383.066 9.607H30.824c.402-4.595.3-9.037-.432-16.468Zm.228 18.468h323.558c.204.994.467 1.95.801 2.844 1.696 4.543 5.85 9.169 9.462 12.594a82.508 82.508 0 0 0 6.322 5.401l.164.125v25.578c-139.368 6.756-218.415 6.24-358.253-.081v-25.412c.64-.356 1.306-.715 1.988-1.084l.004-.002.001-.001.008-.004.003-.001v-.001c2.831-1.529 5.932-3.204 8.58-5.337 3.515-2.829 6.36-6.549 7.02-11.994.13-.907.243-1.776.342-2.625Zm325.296-20.468h15.011V83.25H12.674v29.445h343.242ZM11.674 81.25H380V16.74C227.641-3.615 144.94-2.204 2 16.74v64.51h9.674Zm-.045 100.329.023-.498H2v157.224h9.727l.053.006c147.723 15.738 226.528 15.747 360.03.001l.058-.007H380V181.081h-6.447l.024.497c-141.348 6.905-220.607 6.404-361.948.001Z" fill="#344F10"/></svg>